<svg xmlns="http://www.w3.org/2000/svg" xmlns:xlink="http://www.w3.org/1999/xlink" id="Layer_1" x="0px" y="0px" viewBox="-49 141 512 512" class="enable-bg-512" xml:space="preserve">
<style type="text/css">
	.st0{fill:#FFFFFF;}
</style>
<g>
	<path class="st0" d="M383,301H31v224h352V301z M367,509H47V317h320V509z"></path>
	<path class="st0" d="M391,205H23c-13.2,0-24,10.8-24,24v304c0,13.2,10.8,24,24,24h368c13.2,0,24-10.8,24-24V229   C415,215.8,404.2,205,391,205z M399,533c0,4.4-3.6,8-8,8H23c-4.4,0-8-3.6-8-8V285h384V533z M399,269H15v-40c0-4.4,3.6-8,8-8h368   c4.4,0,8,3.6,8,8V269z"></path>
	<rect x="15" y="573" class="st0" width="384" height="16"></rect>
	<rect x="31" y="237" class="st0" width="80" height="16"></rect>
	<rect x="127" y="237" class="st0" width="32" height="16"></rect>
	<rect x="351" y="237" class="st0" width="32" height="16"></rect>
	<rect x="303" y="237" class="st0" width="32" height="16"></rect>
	<path class="st0" d="M87,395.1l32.1,18.1l0,0c2.5,1.4,5.2,2.1,7.9,2.1c2.8,0,5.6-0.7,8.1-2.2c5-2.9,7.9-8.1,7.9-13.8V389h192v-16   H143v-10.3c0-5.8-3-10.9-7.9-13.8c-5-2.9-10.9-2.9-16-0.1L87,366.9c-5.1,2.9-8.2,8.3-8.2,14.1S81.9,392.3,87,395.1z M127,362.7   v36.6l0,0l-32.1-18.5L127,362.7z"></path>
	<path class="st0" d="M327,438.9l-32.1-18.1c-5-2.8-11-2.8-16,0.1s-7.9,8.1-7.9,13.8V445H79v16h192v10.3c0,5.8,3,10.9,7.9,13.8   c2.5,1.5,5.3,2.2,8.1,2.2c2.7,0,5.4-0.7,7.9-2.1l32.1-18.1c5.1-2.9,8.2-8.3,8.2-14.1C335.3,447.1,332.1,441.7,327,438.9z    M287,471.3l3.9,7L287,471.3v-36.6l32.1,18.5L287,471.3z"></path>
</g>
</svg>