<?xml version="1.0" encoding="utf-8"?>
<!-- Generator: Adobe Illustrator 19.0.0, SVG Export Plug-In . SVG Version: 6.00 Build 0)  -->
<svg version="1.1" id="Layer_1" xmlns="http://www.w3.org/2000/svg" xmlns:xlink="http://www.w3.org/1999/xlink" x="0px" y="0px"
	 viewBox="-49 141 512 512" class="enable-bg-512" xml:space="preserve">
<style type="text/css">
	.st0{fill:#1A194E;}
</style>
<g>
	<path class="st0" d="M151,325H55c-4.4,0-8,3.6-8,8v32c0,4.4,3.6,8,8,8h96c4.4,0,8-3.6,8-8v-32C159,328.6,155.4,325,151,325z"/>
	<path class="st0" d="M335,405.4V237c0-13.2-10.8-24-24-24H23c-13.2,0-24,10.8-24,24v240c0,10.4,6.7,19.2,16,22.5v9.5
		c0,13.2,10.8,24,24,24h209.7c14.6,28.4,44.2,48,78.3,48c48.5,0,88-39.5,88-88C415,447.2,379.8,409.5,335,405.4z M15,237
		c0-4.4,3.6-8,8-8h288c4.4,0,8,3.6,8,8v40H15V237z M39,517c-4.4,0-8-3.6-8-8v-8h208.4c0.5,5.5,1.5,10.8,3,16H39z M239.4,485H23
		c-4.4,0-8-3.6-8-8V293h304v112.4c-15.7,1.4-30.2,7-42.4,15.6H175v16h84.2C248.2,450.3,241,466.9,239.4,485z M327,565
		c-39.7,0-72-32.3-72-72s32.3-72,72-72s72,32.3,72,72S366.7,565,327,565z"/>
	<polygon class="st0" points="349.6,459.1 327,481.7 304.4,459.1 293.1,470.4 315.7,493 293.1,515.6 304.4,526.9 327,504.3 
		349.6,526.9 360.9,515.6 338.3,493 360.9,470.4 	"/>
	<rect x="47" y="245" class="st0" width="80" height="16"/>
	<rect x="175" y="325" class="st0" width="112" height="16"/>
	<rect x="47" y="389" class="st0" width="48" height="16"/>
	<rect x="47" y="421" class="st0" width="48" height="16"/>
	<rect x="111" y="389" class="st0" width="48" height="16"/>
	<rect x="111" y="421" class="st0" width="48" height="16"/>
	<rect x="175" y="357" class="st0" width="112" height="16"/>
	<rect x="175" y="389" class="st0" width="112" height="16"/>
</g>
</svg>
