<svg xmlns="http://www.w3.org/2000/svg" xmlns:xlink="http://www.w3.org/1999/xlink" id="Layer_1" x="0px" y="0px" viewBox="-49 141 512 512" class="enable-bg-512" xml:space="preserve">
<style type="text/css">
	.st0{fill:#FFFFFF;}
</style>
<g>
	<path class="st0" d="M242.5,389.2c7.7-8.5,12.5-19.8,12.5-32.2c0-26.5-21.5-48-48-48s-48,21.5-48,48c0,12.4,4.8,23.7,12.5,32.2   L131.1,589H87v16h40.9h158.2H327v-16h-44.1L242.5,389.2z M207,325c17.6,0,32,14.4,32,32s-14.4,32-32,32s-32-14.4-32-32   S189.4,325,207,325z M235.8,437h-57.7l7.5-37.1c6.4,3.2,13.7,5.1,21.4,5.1s14.9-1.9,21.4-5.1L235.8,437z M174.9,453h64.2l6.5,32   h-77.1L174.9,453z M165.2,501h83.6l6.5,32h-96.5L165.2,501z M175,589h-27.6l8.1-40H175V589z M223,589h-32v-40h32V589z M239,589v-40   h19.5l8.1,40H239z"></path>
	<path class="st0" d="M335,357c0-70.6-57.4-128-128-128S79,286.4,79,357c0,45.9,24.3,86.1,60.7,108.7l3.4-16.8   C114.1,428.6,95,395,95,357c0-61.8,50.2-112,112-112s112,50.2,112,112c0,38-19.1,71.6-48.1,91.9l3.4,16.8   C310.7,443.1,335,402.9,335,357z"></path>
	<path class="st0" d="M265.6,422.5c18-16.1,29.4-39.5,29.4-65.5c0-48.5-39.5-88-88-88s-88,39.5-88,88c0,26,11.4,49.4,29.4,65.5   l3.8-18.9C141.5,391.1,135,374.8,135,357c0-39.7,32.3-72,72-72s72,32.3,72,72c0,17.8-6.5,34.1-17.2,46.6L265.6,422.5z"></path>
	<circle class="st0" cx="207" cy="357" r="16"></circle>
	<path class="st0" d="M131.4,506.8l3.3-16.2C87.3,464.9,55,414.6,55,357c0-83.8,68.2-152,152-152s152,68.2,152,152   c0,57.6-32.3,107.9-79.7,133.7l3.3,16.2C337.3,479.1,375,422.4,375,357c0-92.6-75.4-168-168-168S39,264.4,39,357   C39,422.4,76.7,479.1,131.4,506.8z"></path>
</g>
</svg>