<svg xmlns="http://www.w3.org/2000/svg" xmlns:xlink="http://www.w3.org/1999/xlink" id="Layer_1" x="0px" y="0px" viewBox="-65 157 480 480" class="enable-bg-480" xml:space="preserve">
<style type="text/css">
	.st0{fill:#FFFFFF;}
</style>
<g>
	<path class="st0" d="M73,469c3.3,0,6-2.7,6-6s-2.7-6-6-6H55v-60l-108,96l108,96v-60h18c3.3,0,6-2.7,6-6s-2.7-6-6-6H43v45.2   L-34.9,493L43,423.8V469H73z"></path>
	<path class="st0" d="M265,325c-3.3,0-6,2.7-6,6s2.7,6,6,6h30v60l108-96l-108-96v60h-30c-3.3,0-6,2.7-6,6s2.7,6,6,6h42v-45.2   l77.9,69.2L307,370.2V325H265z"></path>
	<path class="st0" d="M259,446.2c0-51.7-38.8-66.7-67.1-77.7c-19.6-7.6-28.9-12-28.9-19.5c0-10.4,13.2-12,21-12   c18.5,0,33.6,3.5,44.8,10.3l18.2,11V337v-48.1v-7.1l-6.2-3.4c-11.1-6.2-35.5-10.4-53.8-12.4v-37v-12h-12h-12h-12v12v38.3   c-25.1,7.2-60,30.3-60,81.7c0,48.8,39.2,65.6,67.8,77.9c13.9,6,28.2,12.1,28.2,18.3c-1.2,3.6-16,11.8-30,11.8   c-24.5,0-37.4-1.8-49.2-6.9L91,442.8V461v47.2v8.2l7.6,3c13.8,5.4,37.7,7.8,52.4,8.9V565v12h12h12h12v-12v-38.5   C219.1,517.1,259,488.3,259,446.2z"></path>
	<path class="st0" d="M271,463c0,3.3,2.7,6,6,6h102v48H229c-3.3,0-6,2.7-6,6s2.7,6,6,6h162v-72H277C273.7,457,271,459.7,271,463z"></path>
	<path class="st0" d="M73,325H-29v-48h138c3.3,0,6-2.7,6-6s-2.7-6-6-6H-41v72H73c3.3,0,6-2.7,6-6S76.3,325,73,325z"></path>
</g>
</svg>