<?xml version="1.0" encoding="utf-8"?>
<!-- Generator: Adobe Illustrator 19.0.0, SVG Export Plug-In . SVG Version: 6.00 Build 0)  -->
<svg version="1.1" id="Layer_1" xmlns="http://www.w3.org/2000/svg" xmlns:xlink="http://www.w3.org/1999/xlink" x="0px" y="0px"
	 viewBox="-65 157 480 480" class="enable-bg-480" xml:space="preserve">
<style type="text/css">
	.st0{fill:#FFFFFF;}
</style>
<g>
	<path class="st0" d="M373.1,388c-2.5,0-4.5,2-4.5,4.5s2,4.5,4.5,4.5s4.5-2,4.5-4.5C377.5,390,375.5,388,373.1,388z"/>
	<path class="st0" d="M252.7,294.5c2.5,0,4.5-2,4.5-4.5s-2-4.5-4.5-4.5s-4.5,2-4.5,4.5S250.2,294.5,252.7,294.5z"/>
	<path class="st0" d="M355.2,388c-2.5,0-4.5,2-4.5,4.5s2,4.5,4.5,4.5s4.5-2,4.5-4.5S357.7,388,355.2,388z"/>
	<path class="st0" d="M177.1,317c-1.7,1.7-1.7,4.6,0,6.3s4.6,1.7,6.3,0c1.7-1.7,1.7-4.6,0-6.3C181.7,315.2,178.8,315.2,177.1,317z"
		/>
	<path class="st0" d="M322.1,461.8c-1.7,1.7-1.7,4.6,0,6.3c1.7,1.7,4.6,1.7,6.3,0c1.7-1.7,1.7-4.6,0-6.3S323.8,460.1,322.1,461.8z"
		/>
	<path class="st0" d="M322.1,323.3c1.7,1.7,4.6,1.7,6.3,0s1.7-4.6,0-6.3c-1.8-1.8-4.6-1.8-6.3,0
		C320.4,318.7,320.4,321.5,322.1,323.3z"/>
	<path class="st0" d="M252.7,276.8c2.5,0,4.5-2,4.5-4.5s-2-4.5-4.5-4.5s-4.5,2-4.5,4.5S250.2,276.8,252.7,276.8z"/>
	<path class="st0" d="M334.7,474.5c-1.7,1.7-1.7,4.6,0,6.3s4.6,1.7,6.3,0s1.7-4.6,0-6.3S336.4,472.8,334.7,474.5z"/>
	<path class="st0" d="M164.5,304.3c-1.7,1.7-1.7,4.6,0,6.3c1.7,1.7,4.6,1.7,6.3,0c1.7-1.7,1.7-4.6,0-6.3
		C169,302.5,166.2,302.5,164.5,304.3z"/>
	<path class="st0" d="M341,310.7c1.7-1.7,1.7-4.6,0-6.3c-1.8-1.8-4.6-1.8-6.3,0c-1.7,1.7-1.7,4.6,0,6.3
		C336.4,312.3,339.3,312.3,341,310.7z"/>
	<path class="st0" d="M365.6,350.5c2.3-0.9,3.4-3.5,2.4-5.8c-0.9-2.2-3.5-3.3-5.8-2.4c-2.3,0.9-3.4,3.5-2.4,5.8
		C360.8,350.5,363.3,351.5,365.6,350.5z"/>
	<path class="st0" d="M205,277.3c-2.3,0.9-3.4,3.5-2.4,5.8c0.9,2.3,3.5,3.4,5.8,2.4s3.4-3.5,2.4-5.8
		C209.8,277.3,207.2,276.3,205,277.3z"/>
	<path class="st0" d="M365.6,434.5c-2.3-0.9-4.9,0.2-5.8,2.4c-0.9,2.3,0.1,4.9,2.4,5.8c2.3,0.9,4.9-0.1,5.8-2.4
		C368.9,438,367.9,435.3,365.6,434.5z"/>
	<path class="st0" d="M143.2,342.3c-2.2-0.9-4.8,0.2-5.8,2.4c-0.9,2.3,0.1,4.9,2.4,5.8c2.3,0.9,4.9-0.1,5.8-2.4
		C146.5,345.8,145.5,343.3,143.2,342.3z"/>
	<path class="st0" d="M297.1,285.5c2.3,0.9,4.9-0.1,5.8-2.4c0.9-2.3-0.1-4.9-2.4-5.8c-2.3-0.9-4.9,0.1-5.8,2.4
		C293.8,282,294.8,284.5,297.1,285.5z"/>
	<path class="st0" d="M366.4,370c0.5,2.4,2.8,4,5.2,3.5s4-2.8,3.5-5.2c-0.5-2.5-2.8-4-5.2-3.5C367.5,365.3,365.9,367.5,366.4,370z"
		/>
	<path class="st0" d="M233.6,273.6c-0.5-2.4-2.8-4-5.2-3.5c-2.4,0.5-4,2.8-3.5,5.2c0.5,2.4,2.8,4,5.2,3.5
		C232.5,278.3,234.1,276,233.6,273.6z"/>
	<path class="st0" d="M355.3,455.8c-2-1.4-4.9-0.9-6.2,1.2c-1.4,2-0.8,4.8,1.2,6.2c2,1.4,4.8,0.8,6.2-1.2S357.3,457.1,355.3,455.8z"
		/>
	<path class="st0" d="M155.2,322c-2.1-1.4-4.9-0.9-6.2,1.2c-1.4,2-0.8,4.8,1.2,6.2c2,1.4,4.8,0.8,6.2-1.2
		C157.8,326.3,157.2,323.5,155.2,322z"/>
	<path class="st0" d="M317.1,296.3c2,1.4,4.8,0.8,6.2-1.2s0.8-4.8-1.2-6.2c-2.1-1.4-4.9-0.9-6.2,1.2
		C314.5,292,315.1,294.8,317.1,296.3z"/>
	<path class="st0" d="M355.3,329.3c2-1.4,2.6-4.1,1.2-6.2c-1.4-2-4.2-2.5-6.2-1.2c-2,1.4-2.6,4.1-1.2,6.2
		C350.5,330.3,353.2,330.8,355.3,329.3z"/>
	<path class="st0" d="M183.4,288.8c-2,1.4-2.6,4.1-1.2,6.2c1.4,2,4.1,2.6,6.2,1.2c2-1.4,2.6-4.1,1.2-6.2
		C188.2,287.8,185.4,287.5,183.4,288.8z"/>
	<path class="st0" d="M371.6,411.7c-2.4-0.5-4.7,1.1-5.2,3.5c-0.5,2.4,1.1,4.8,3.5,5.2c2.4,0.5,4.8-1.1,5.2-3.5
		C375.6,414.5,374,412,371.6,411.7z"/>
	<path class="st0" d="M275.3,278.8c2.4,0.5,4.8-1.1,5.2-3.5c0.5-2.4-1.1-4.8-3.5-5.2c-2.3-0.5-4.7,1.1-5.2,3.5
		C271.3,276,272.9,278.5,275.3,278.8z"/>
	<path class="st0" d="M252.7,245c-67.1,0-124,45.1-141.8,106.6c-21.7,1.6-42.5,7.4-62,17.2c-4,2-8,4.3-11.9,6.6
		c-3.3,2-4.9,6-3.9,9.7c1,3.8,4.3,6.4,8.3,6.5c8.8,0.2,17.5,1.8,25.4,4.5c-45,2.2-86.6,28.4-111.1,72.8c-1.7,3.1-1.4,6.9,0.8,9.8
		c2.2,2.8,5.8,4,9.2,3.1c22.8-6.3,38.6-6.2,59-3.2c-4.6,6.4-7.6,12.8-9.2,16.9c-1,2.6-0.7,5.5,0.8,7.9c1.5,2.4,4.1,3.9,6.9,4
		c20.9,1.2,33.8,9.2,47.5,17.6c15.2,9.4,30.9,19.1,57.6,19.1c26.4,0,51.1-10.5,69.5-29.5c0.3-0.4,0.7-0.7,1-1.1h4.4h99.1h35.1
		l1.3-0.9c38.6-27.7,61.6-72.6,61.6-120C400.3,311.2,334.1,245,252.7,245z M213.2,503.5v-9.9c2-3.7,3.8-7.4,5.2-11.3h73.8v21.2
		H213.2z M334.2,503.5h-31.9v-31.2h-80.6c2.1-8,3.2-16.2,3.2-24.7c0-1.2,0-2.4-0.1-3.5c-1.8-51.3-46.1-93-98.7-93h-2.4
		c-0.7,0-1.5,0-2.2,0c17.6-55.7,69.8-96.1,131.2-96.1c75.9,0,137.6,61.7,137.6,137.6C390.3,436.2,369.4,477.5,334.2,503.5z"/>
	<path class="st0" d="M252.7,369.1c-12.9,0-23.4,10.5-23.4,23.4c0,12.9,10.5,23.4,23.4,23.4c12.9,0,23.4-10.5,23.4-23.4
		c0-0.3,0-0.6,0-0.9l71.2-37.9l-77,23.5C266.1,372.3,259.8,369.1,252.7,369.1z M252.7,396c-1.9,0-3.4-1.5-3.4-3.4
		c0-1.9,1.5-3.4,3.4-3.4c1.9,0,3.4,1.5,3.4,3.4C256.1,394.4,254.6,396,252.7,396z"/>
</g>
</svg>
