<?xml version="1.0" encoding="utf-8"?>
<!-- Generator: Adobe Illustrator 19.0.0, SVG Export Plug-In . SVG Version: 6.00 Build 0)  -->
<svg version="1.1" id="Layer_1" xmlns="http://www.w3.org/2000/svg" xmlns:xlink="http://www.w3.org/1999/xlink" x="0px" y="0px"
	 viewBox="-65 157 480 480" class="enable-bg-480" xml:space="preserve">
<style type="text/css">
	.st0{fill:#FFFFFF;}
</style>
<g>
	<path class="st0" d="M394,160.7l-30,26c0,0-44,36-88,36c-20,0-36-8-56-16c-22-10-48-24-86-24c-108,0-170,66-174,70l-6,6l104,292
		l0.1-0.1l29.1,82.7l37.7-13.3L89.7,520c16.4-13.8,51.4-39.3,86.3-39.3c30,0,48,6,64,10s32,10,56,10c48,0,88-22,90-22l10-6
		L394,160.7z M294,462.7c-8.6,0-15.8-0.9-22.7-2.3L256,394.7c-20-6-50-16-64-16l18.2,66.8c-10.7-1.7-23-2.8-38.2-2.8
		c-12.7,0-25.1,2.4-36.9,6.2L110,384.7c-19.9,8.2-41.1,23.9-55.3,35.5l-32.1-91.5C51.7,306.6,80,296.7,80,296.7l-25-62.5
		c22-8.8,49.1-15.5,81-15.5c5.3,0,10.2,0.4,15,1l17,65c18,0,68,24,68,24l-14.3-62.9c16.5,7.2,33.5,12.9,56.3,12.9
		c9.2,0,18.5-1.1,27.4-3.1l4.6,63.1c0,0,21.1-5.6,48-22.8v84.9c-22.3,10-42,13.9-42,13.9l4.6,65.4
		C312.3,461.7,303.3,462.7,294,462.7z"/>
	<path class="st0" d="M78,298.7l34,86c0,0,26-10,44-10s36,2,36,2l-24-92c0,0-6,0-16,0C112,284.7,78,298.7,78,298.7z"/>
	<path class="st0" d="M236,310.7l18,82c0,0,18,4,32,4s30-2,30-2l-6-76c0,0-12,4-28,4C260,322.7,236,310.7,236,310.7z"/>
</g>
</svg>
