<?xml version="1.0" encoding="utf-8"?>
<!-- Generator: Adobe Illustrator 19.0.0, SVG Export Plug-In . SVG Version: 6.00 Build 0)  -->
<svg version="1.1" id="Layer_1" xmlns="http://www.w3.org/2000/svg" xmlns:xlink="http://www.w3.org/1999/xlink" x="0px" y="0px"
	 viewBox="-49 141 512 512" class="enable-bg-512" xml:space="preserve">
<style type="text/css">
	.st0{fill:#1A194E;}
</style>
<g>
	<path class="st0" d="M429.5,298.3C429.5,298.3,429.5,298.3,429.5,298.3c-0.2-0.9-0.3-1.8-0.5-2.6c0,0,0.1,0,0.1,0.1
		c-1.2-6.7-3-13.3-5.3-19.6c0,0,0,0-0.1,0C407,230.1,362.8,197,311,197h-24l-16,0.4c-48.6,3.2-89.3,35.5-105,79.6h-23
		c-7,0-13.8,0.6-20.6,1.5l14.8,14.8c1.9-0.1,3.8-0.3,5.8-0.3c79.4,0,144,64.6,144,144c0,1.9-0.2,3.8-0.3,5.8l14.6,14.6
		c0.5-4.1,1-8.2,1.2-12.4h32c-0.6,11-2.4,21.8-5.4,32h-8.3l18.7,18.7c7.2-18.2,11.3-38,11.3-58.7c0-2.3-0.2-4.6-0.3-6.9
		c33.9-11.9,60.8-38.6,73.1-72.3c0,0,0,0,0.1,0c2.3-6.3,4.1-12.8,5.3-19.6c0,0-0.1,0-0.1,0.1c0.2-0.8,0.3-1.7,0.4-2.5l0.1-0.1
		c1-6.1,1.5-12.3,1.5-18.7S430.5,304.4,429.5,298.3z M366.3,229c13,8.2,24,19.1,32.3,32h-13.4c-6.4-12-14.8-22.8-24.7-32H366.3z
		 M217.5,280c-5.6-1.1-11.2-1.8-17-2.3l0,0C206.2,278.2,211.9,278.9,217.5,280c12.6-20.9,35.5-35,61.6-35c39.7,0,72,32.3,72,72
		c0,18-6.7,34.5-17.7,47.2l0,0c-22.6-44-65.1-76.2-115.5-84.7C217.7,279.6,217.6,279.8,217.5,280z M238.7,309h18.1
		c12.4,6.4,23.7,14.5,33.7,24h-26C256.8,324.1,248.1,316.1,238.7,309z M276.5,349h28.2c7.6,9.8,14,20.5,18.9,32h-31
		C288.5,369.7,283.2,358.9,276.5,349z M302.7,429c-0.5-11-2.2-21.7-4.9-32h31.5c3,10.2,4.8,21,5.4,32H302.7z M345.7,396.6
		c0-0.1,0-0.1,0-0.2c-1.5-5.6-3.2-11.1-5.3-16.5C356.8,364,367,341.7,367,317c0-48.5-39.5-88-88-88c-34.3,0-64,19.8-78.5,48.5
		c-3.2-0.2-6.3-0.5-9.5-0.5h-8c15.7-37.5,52.8-64,96-64c57.3,0,104,46.7,104,104C383,349,368.5,377.6,345.7,396.6z M366.3,405h-5.9
		c9.9-9.2,18.4-20,24.7-32h13.4C390.3,385.9,379.3,396.8,366.3,405z M407,357h-15c3.6-10.1,5.8-20.8,6.6-32h16
		C413.8,336.3,411.3,347,407,357z M398.7,309c-0.7-11.2-3-21.9-6.6-32h15c4.2,10,6.8,20.7,7.6,32H398.7z"/>
	<path class="st0" d="M173.2,397l-16-16h-38.1c-8.8,0-16,7.2-16,16v32c0,8.8,7.2,16,16,16h48v32h-64v16h64c8.8,0,16-7.2,16-16v-32
		c0-8.8-7.2-16-16-16h-48v-32H173.2z"/>
	<path class="st0" d="M15.1,437c0,70.6,57.4,128,128,128c53.5,0,99.3-33,118.4-79.6l-12.4-12.5c-15,44.2-56.8,76.1-106,76.1
		c-61.8,0-112-50.2-112-112c0-49.2,31.9-91,76.1-106l-12.5-12.5C48.1,337.7,15.1,383.5,15.1,437z"/>
	<path class="st0" d="M250.8,406.8l19.7,19.7c-5.1-62.2-54.8-111.9-117-117l19.7,19.7C210.8,339.8,240.3,369.3,250.8,406.8z"/>
	<path class="st0" d="M276.5,525c3.3-5,6.3-10.2,9-15.6l-12-12c-22.9,49.3-72.7,83.6-130.5,83.6c-79.4,0-144-64.6-144-144
		c0-57.8,34.3-107.6,83.5-130.5l-12-12C18.8,321-16.9,374.9-16.9,437c0,88.2,71.8,160,160,160h48c49.7,0,94.2-22.8,123.6-58.5
		L301.2,525H276.5z M256.8,565h-18.1c9.4-7.1,18.1-15.1,25.8-24h26C280.5,550.5,269,558.6,256.8,565z"/>
	<polygon class="st0" points="7.4,208.7 395.3,596.7 406.8,585.3 18.8,197.3 	"/>
</g>
</svg>
