<?xml version="1.0" encoding="utf-8"?>
<!-- Generator: Adobe Illustrator 19.0.0, SVG Export Plug-In . SVG Version: 6.00 Build 0)  -->
<svg version="1.1" id="Layer_1" xmlns="http://www.w3.org/2000/svg" xmlns:xlink="http://www.w3.org/1999/xlink" x="0px" y="0px"
	 viewBox="-49 141 512 512" class="enable-bg-512" xml:space="preserve">
<style type="text/css">
	.st0{fill:#1A194E;}
</style>
<g>
	<path class="st0" d="M223,373h-64c-4.4,0-8-3.6-8-8v-32c0-4.4,3.6-8,8-8h80v-16h-40v-16h-16v16h-24c-13.2,0-24,10.8-24,24v32
		c0,13.2,10.8,24,24,24h64c4.4,0,8,3.6,8,8v24c0,4.4-3.6,8-8,8h-88v16h48v16h16v-16h24c13.2,0,24-10.8,24-24v-24
		C247,383.8,236.2,373,223,373z"/>
	<path class="st0" d="M372.8,442c6.5-19.2,10.2-39.6,10.2-61c0-105.9-86.1-192-192-192S-1,275.1-1,381s86.1,192,192,192
		c21.4,0,41.8-3.7,61-10.2c15.5,25.3,43.3,42.2,75,42.2c48.5,0,88-39.5,88-88C415,485.3,398.1,457.5,372.8,442z M191,557
		c-97,0-176-79-176-176s79-176,176-176s176,79,176,176c0,18.8-3.2,36.8-8.8,53.8c-5-1.9-10.2-3.4-15.5-4.4
		c5.2-15.5,8.3-32.1,8.3-49.4c0-88.2-71.8-160-160-160S31,292.8,31,381s71.8,160,160,160c17.3,0,33.9-3.1,49.5-8.3
		c1,5.4,2.4,10.5,4.3,15.5C227.8,553.7,209.8,557,191,557z M239,516.4c-15,5.4-31.1,8.6-48,8.6c-79.4,0-144-64.6-144-144
		s64.6-144,144-144s144,64.6,144,144c0,16.9-3.2,33-8.6,48C278.4,429.4,239.4,468.4,239,516.4z M327,589c-39.7,0-72-32.3-72-72
		s32.3-72,72-72s72,32.3,72,72S366.7,589,327,589z"/>
	<polygon class="st0" points="349.6,483.1 327,505.7 304.4,483.1 293.1,494.4 315.7,517 293.1,539.6 304.4,550.9 327,528.3 
		349.6,550.9 360.9,539.6 338.3,517 360.9,494.4 	"/>
</g>
</svg>
